<svg width="169" height="184" viewBox="0 0 169 184" fill="none" xmlns="http://www.w3.org/2000/svg">
<g filter="url(#filter0_b_444_4515)">
<rect width="42" height="43" rx="21" fill="url(#paint0_linear_444_4515)" fill-opacity="0.06"/>
<path d="M21.0001 12.25L29.4436 17.125V25.6238C29.4436 26.0041 29.3435 26.3777 29.1533 26.7071C28.9632 27.0364 28.6897 27.3099 28.3603 27.5001L22.0835 31.1249C21.7541 31.3151 21.3805 31.4152 21.0001 31.4152C20.6198 31.4152 20.2462 31.3151 19.9168 31.1249L13.64 27.5001C13.3106 27.3099 13.0371 27.0364 12.8469 26.7071C12.6568 26.3777 12.5567 26.0041 12.5566 25.6238V17.125L21.0001 12.25Z" stroke="white" stroke-linecap="round" stroke-linejoin="round"/>
<path d="M20.9994 16.583V21.9997M20.9994 21.9997L16.3086 24.708M20.9994 21.9997L25.6903 24.708" stroke="white" stroke-linecap="round" stroke-linejoin="round"/>
</g>
<g filter="url(#filter1_b_444_4515)">
<rect y="47" width="42" height="43" rx="21" fill="url(#paint1_linear_444_4515)" fill-opacity="0.06"/>
<path d="M29.1811 78C29.0735 78.0001 28.967 77.9801 28.8676 77.941C28.7683 77.9019 28.678 77.8445 28.6021 77.7721L10.2399 60.328C9.92005 60.0242 9.92005 59.5317 10.2399 59.2279C10.5597 58.924 11.0781 58.924 11.3979 59.2279L29.7601 76.672C30.08 76.9758 30.08 77.4683 29.7601 77.7721C29.6842 77.8445 29.5939 77.9019 29.4945 77.941C29.3952 77.9801 29.2886 78.0001 29.1811 78Z" fill="white"/>
<path d="M28.539 64.9297C28.4758 64.848 28.409 64.7692 28.3388 64.6934L28.3323 64.6864L28.3255 64.6796L28.3224 64.6766C28.3222 64.6763 28.322 64.6761 28.3217 64.6758C28.2757 64.6289 28.25 64.5658 28.2502 64.5C28.2503 64.434 28.2767 64.3707 28.3233 64.324C28.3702 64.2772 28.4337 64.2509 28.5 64.2509C28.5663 64.2509 28.6298 64.2772 28.6767 64.324L28.6783 64.3257L28.7081 64.3554L28.75 64.4021C28.7967 64.4554 28.8589 64.5274 28.9303 64.6182C29.786 65.7314 30.25 67.0961 30.25 68.5002C30.25 69.8664 29.8108 71.1953 28.9988 72.2915L28.8746 72.1677L28.8739 72.167L28.345 72.6968C28.3376 72.6909 28.3304 72.6845 28.3236 72.6777C28.2766 72.6307 28.2503 72.5671 28.2503 72.5007C28.2503 72.4344 28.2766 72.3707 28.3236 72.3238L28.3231 72.3233L28.3255 72.3208L28.3332 72.3131L28.3406 72.3051L28.3724 72.2704C28.3727 72.2701 28.3729 72.2698 28.3732 72.2695C28.4186 72.2203 28.4744 72.1525 28.5361 72.0745L28.5361 72.0745L28.5409 72.0683C29.2325 71.1655 29.6469 70.0813 29.7338 68.9474C29.8207 67.8139 29.5766 66.6796 29.0312 65.6822M28.539 64.9297C28.7233 65.1667 28.8879 65.4184 29.0312 65.6822M28.539 64.9297C28.5392 64.9299 28.5393 64.9301 28.5394 64.9302L28.144 65.2362L28.5386 64.9292C28.5388 64.9294 28.5389 64.9296 28.539 64.9297ZM29.0312 65.6822C29.0313 65.6824 29.0314 65.6825 29.0314 65.6827L28.592 65.9212L29.0306 65.6812C29.0308 65.6816 29.031 65.6819 29.0312 65.6822ZM22.3123 60.8136L22.3123 60.8136L16.3133 64.7696L16.3124 64.7702C16.1897 64.8507 16.0462 64.8935 15.8995 64.8932M22.3123 60.8136L13 64.3932C12.2707 64.3932 11.5712 64.683 11.0555 65.1987C10.5397 65.7144 10.25 66.4139 10.25 67.1432V70.8572C10.25 71.5866 10.5397 72.286 11.0555 72.8018C11.5712 73.3175 12.2707 73.6072 13 73.6072H15.9C15.9488 73.6076 15.9964 73.6222 16.037 73.6492M22.3123 60.8136C23.1427 60.266 24.25 60.8622 24.25 61.8572V76.1432C24.25 77.139 23.1429 77.7346 22.3123 77.1868L22.3122 77.1868L16.3144 73.2332M22.3123 60.8136L16.3144 73.2332M15.8995 64.8932C15.8991 64.8932 15.8988 64.8932 15.8984 64.8932L15.9 64.3932V64.8932H15.8995ZM15.8995 64.8932H13C12.4033 64.8932 11.831 65.1303 11.409 65.5522C10.9871 65.9742 10.75 66.5465 10.75 67.1432V70.8572C10.75 71.454 10.9871 72.0263 11.409 72.4482C11.831 72.8702 12.4033 73.1072 13 73.1072H15.9H15.9034V73.1072C16.0493 73.1082 16.1917 73.1517 16.3132 73.2324L16.3122 73.2318L16.037 73.6492M16.037 73.6492L16.3144 73.2332M16.037 73.6492L22.037 77.6042L16.3144 73.2332" stroke="white"/>
</g>
<g filter="url(#filter2_b_444_4515)">
<rect y="94" width="42" height="43" rx="21" fill="url(#paint2_linear_444_4515)" fill-opacity="0.06"/>
<path d="M21.5 110.469H30.125M12.875 110.469H16.4688M16.4688 110.469C16.4688 111.231 16.7717 111.963 17.3108 112.502C17.85 113.041 18.5813 113.344 19.3438 113.344C20.1062 113.344 20.8375 113.041 21.3767 112.502C21.9158 111.963 22.2188 111.231 22.2188 110.469C22.2188 109.706 21.9158 108.975 21.3767 108.436C20.8375 107.897 20.1062 107.594 19.3438 107.594C18.5813 107.594 17.85 107.897 17.3108 108.436C16.7717 108.975 16.4688 109.706 16.4688 110.469ZM12.875 120.531H21.5M26.5312 120.531H30.125M26.5312 120.531C26.5312 121.294 26.2283 122.025 25.6892 122.564C25.15 123.103 24.4187 123.406 23.6562 123.406C22.8938 123.406 22.1625 123.103 21.6233 122.564C21.0842 122.025 20.7812 121.294 20.7812 120.531C20.7812 119.769 21.0842 119.037 21.6233 118.498C22.1625 117.959 22.8938 117.656 23.6562 117.656C24.4187 117.656 25.15 117.959 25.6892 118.498C26.2283 119.037 26.5312 119.769 26.5312 120.531Z" stroke="white"/>
</g>
<g filter="url(#filter3_b_444_4515)">
<rect y="141" width="42" height="43" rx="21" fill="url(#paint3_linear_444_4515)" fill-opacity="0.06"/>
<path d="M12.9663 155.065H22.0322C22.6334 155.103 23.1961 155.387 23.598 155.855C24 156.323 24.2087 156.938 24.1788 157.565V172.435C24.2087 173.063 24 173.678 23.598 174.146C23.1961 174.614 22.6334 174.898 22.0322 174.935H12.9663C12.3651 174.898 11.8024 174.614 11.4004 174.146C10.9985 173.678 10.7898 173.063 10.8197 172.435V157.565C10.7898 156.938 10.9985 156.323 11.4004 155.855C11.8024 155.387 12.3651 155.103 12.9663 155.065ZM11.778 172.435C11.7485 172.798 11.8564 173.158 12.0786 173.439C12.3008 173.719 12.6195 173.897 12.9663 173.935H22.0322C22.379 173.897 22.6977 173.719 22.9199 173.439C23.1421 173.158 23.25 172.798 23.2205 172.435V157.565C23.25 157.203 23.1421 156.843 22.9199 156.562C22.6977 156.282 22.379 156.103 22.0322 156.065H20.5659V156.575C20.5659 156.841 20.4649 157.095 20.2852 157.283C20.1055 157.47 19.8617 157.575 19.6076 157.575H15.3909C15.1367 157.575 14.893 157.47 14.7133 157.283C14.5335 157.095 14.4326 156.841 14.4326 156.575V156.065H12.9663C12.6195 156.103 12.3008 156.282 12.0786 156.562C11.8564 156.843 11.7485 157.203 11.778 157.565V172.435Z" fill="white"/>
<path d="M19.4173 171.934H15.584C15.4569 171.934 15.335 171.881 15.2452 171.787C15.1553 171.693 15.1048 171.566 15.1048 171.434C15.1048 171.301 15.1553 171.174 15.2452 171.08C15.335 170.986 15.4569 170.934 15.584 170.934H19.4173C19.5444 170.934 19.6663 170.986 19.7561 171.08C19.846 171.174 19.8965 171.301 19.8965 171.434C19.8965 171.566 19.846 171.693 19.7561 171.787C19.6663 171.881 19.5444 171.934 19.4173 171.934Z" fill="white"/>
<path d="M19.5731 150.151H29.4273C30.0808 150.191 30.6924 150.486 31.1293 150.974C31.5662 151.461 31.7931 152.102 31.7606 152.756V168.245C31.7931 168.899 31.5662 169.539 31.1293 170.027C30.6924 170.514 30.0808 170.81 29.4273 170.849H19.5731C18.9196 170.81 18.308 170.514 17.8711 170.027C17.4342 169.539 17.2073 168.899 17.2398 168.245V152.756C17.2073 152.102 17.4342 151.461 17.8711 150.974C18.308 150.486 18.9196 150.191 19.5731 150.151ZM18.2814 168.245C18.2494 168.623 18.3667 168.998 18.6082 169.29C18.8497 169.582 19.1961 169.768 19.5731 169.808H29.4273C29.8043 169.768 30.1507 169.582 30.3922 169.29C30.6337 168.998 30.751 168.623 30.7189 168.245V152.756C30.751 152.378 30.6337 152.003 30.3922 151.711C30.1507 151.418 29.8043 151.233 29.4273 151.193H27.8335V151.724C27.8335 152.001 27.7238 152.266 27.5284 152.461C27.3331 152.656 27.0681 152.766 26.7919 152.766H22.2085C21.9323 152.766 21.6673 152.656 21.472 152.461C21.2766 152.266 21.1669 152.001 21.1669 151.724V151.193H19.5731C19.1961 151.233 18.8497 151.418 18.6082 151.711C18.3667 152.003 18.2494 152.378 18.2814 152.756V168.245Z" fill="white"/>
<path d="M26.5827 167.723H22.416C22.2779 167.723 22.1454 167.668 22.0477 167.571C21.9501 167.473 21.8952 167.341 21.8952 167.202C21.8952 167.064 21.9501 166.932 22.0477 166.834C22.1454 166.737 22.2779 166.682 22.416 166.682H26.5827C26.7208 166.682 26.8533 166.737 26.951 166.834C27.0486 166.932 27.1035 167.064 27.1035 167.202C27.1035 167.341 27.0486 167.473 26.951 167.571C26.8533 167.668 26.7208 167.723 26.5827 167.723Z" fill="white"/>
</g>
<defs>
<filter id="filter0_b_444_4515" x="-12" y="-12" width="66" height="67" filterUnits="userSpaceOnUse" color-interpolation-filters="sRGB">
<feFlood flood-opacity="0" result="BackgroundImageFix"/>
<feGaussianBlur in="BackgroundImageFix" stdDeviation="6"/>
<feComposite in2="SourceAlpha" operator="in" result="effect1_backgroundBlur_444_4515"/>
<feBlend mode="normal" in="SourceGraphic" in2="effect1_backgroundBlur_444_4515" result="shape"/>
</filter>
<filter id="filter1_b_444_4515" x="-12" y="35" width="66" height="67" filterUnits="userSpaceOnUse" color-interpolation-filters="sRGB">
<feFlood flood-opacity="0" result="BackgroundImageFix"/>
<feGaussianBlur in="BackgroundImageFix" stdDeviation="6"/>
<feComposite in2="SourceAlpha" operator="in" result="effect1_backgroundBlur_444_4515"/>
<feBlend mode="normal" in="SourceGraphic" in2="effect1_backgroundBlur_444_4515" result="shape"/>
</filter>
<filter id="filter2_b_444_4515" x="-12" y="82" width="66" height="67" filterUnits="userSpaceOnUse" color-interpolation-filters="sRGB">
<feFlood flood-opacity="0" result="BackgroundImageFix"/>
<feGaussianBlur in="BackgroundImageFix" stdDeviation="6"/>
<feComposite in2="SourceAlpha" operator="in" result="effect1_backgroundBlur_444_4515"/>
<feBlend mode="normal" in="SourceGraphic" in2="effect1_backgroundBlur_444_4515" result="shape"/>
</filter>
<filter id="filter3_b_444_4515" x="-12" y="129" width="66" height="67" filterUnits="userSpaceOnUse" color-interpolation-filters="sRGB">
<feFlood flood-opacity="0" result="BackgroundImageFix"/>
<feGaussianBlur in="BackgroundImageFix" stdDeviation="6"/>
<feComposite in2="SourceAlpha" operator="in" result="effect1_backgroundBlur_444_4515"/>
<feBlend mode="normal" in="SourceGraphic" in2="effect1_backgroundBlur_444_4515" result="shape"/>
</filter>
<linearGradient id="paint0_linear_444_4515" x1="0" y1="0" x2="43.7295" y2="1.8374" gradientUnits="userSpaceOnUse">
<stop stop-color="white" stop-opacity="0.9"/>
<stop offset="1" stop-color="white" stop-opacity="0.8"/>
</linearGradient>
<linearGradient id="paint1_linear_444_4515" x1="0" y1="47" x2="43.7295" y2="48.8374" gradientUnits="userSpaceOnUse">
<stop stop-color="white" stop-opacity="0.9"/>
<stop offset="1" stop-color="white" stop-opacity="0.8"/>
</linearGradient>
<linearGradient id="paint2_linear_444_4515" x1="0" y1="94" x2="43.7295" y2="95.8374" gradientUnits="userSpaceOnUse">
<stop stop-color="white" stop-opacity="0.9"/>
<stop offset="1" stop-color="white" stop-opacity="0.8"/>
</linearGradient>
<linearGradient id="paint3_linear_444_4515" x1="0" y1="141" x2="43.7295" y2="142.837" gradientUnits="userSpaceOnUse">
<stop stop-color="white" stop-opacity="0.9"/>
<stop offset="1" stop-color="white" stop-opacity="0.8"/>
</linearGradient>
</defs>
</svg>
