<svg width="119" height="31" viewBox="0 0 119 31" fill="none" xmlns="http://www.w3.org/2000/svg">
<path d="M95.4579 10.8164C95.6348 9.81573 95.8045 8.89245 96.1014 8.00029C97.2032 4.69046 99.5183 2.77891 102.89 2.15954C106.095 1.57048 109.304 1.56011 112.474 2.41837C115.866 3.33686 117.698 5.72461 118.532 9.01968C118.839 10.2333 118.986 11.4712 118.989 12.7236C118.994 15.1388 119.015 17.5545 118.982 19.9698C118.953 22.1039 118.554 24.1646 117.556 26.0769C116.413 28.2665 114.582 29.5838 112.234 30.1509C108.73 30.998 105.21 31.006 101.723 30.0384C99.6063 29.4514 97.951 28.221 96.8892 26.2504C96.8357 26.1507 96.7659 26.0598 96.6819 25.931C96.4182 26.3573 96.1942 26.7593 95.9325 27.135C94.7336 28.8559 93.0303 29.8298 91.0439 30.2929C88.4291 30.9027 85.7968 30.874 83.1931 30.2004C79.9998 29.3748 77.9667 27.3492 77.4045 24.0681C76.8648 20.9209 76.8034 17.7228 77.4659 14.592C78.0769 11.7061 79.9094 9.71962 82.7237 8.82426C86.2726 7.6952 89.8199 7.7622 93.286 9.23186C94.0984 9.57644 94.778 10.14 95.4583 10.816L95.4579 10.8164ZM101.15 16.24C101.232 18.0064 101.039 19.7803 101.33 21.5415C101.671 23.6094 102.657 24.7185 104.693 25.105C106.416 25.4316 108.151 25.4133 109.881 25.0508C111.485 24.7149 112.447 23.7418 112.858 22.1804C113.028 21.5379 113.146 20.8839 113.15 20.2174C113.164 17.8225 113.173 15.428 113.176 13.033C113.176 12.3283 113.113 11.6288 113.002 10.9308C112.694 9.00732 111.716 7.8647 109.907 7.45152C108.309 7.0866 106.682 7.05788 105.071 7.32908C102.637 7.73867 101.715 8.70262 101.306 11.1777C101.028 12.8564 101.228 14.5525 101.15 16.24ZM91.9257 19.4313C91.9257 18.6676 91.9312 17.9035 91.9225 17.1397C91.9197 16.8992 91.8864 16.6583 91.8551 16.4194C91.6449 14.8014 90.9269 13.9384 89.4104 13.6161C88.0262 13.3222 86.6294 13.3453 85.239 13.6365C83.8509 13.9268 83.0476 14.8226 82.8684 16.1797C82.5865 18.317 82.5897 20.4751 82.8668 22.6124C83.0353 23.9145 83.7894 24.8262 85.1188 25.1301C86.52 25.4504 87.935 25.4891 89.3422 25.1796C90.94 24.8286 91.6354 24.033 91.8563 22.383C91.9879 21.4023 91.938 20.4156 91.9257 19.4313Z" fill="white"/>
<path d="M67.7629 10.4965C67.7629 7.77928 67.7625 5.22761 67.7629 2.67634C67.7637 0.377126 68.1297 0.00223695 70.3988 0.00343342C70.9971 0.00343342 71.5969 -0.0324608 72.1897 0.127866C72.7523 0.279817 73.0897 0.621209 73.2166 1.18395C73.3232 1.65815 73.345 2.13953 73.3446 2.6241C73.3438 8.78232 73.3454 14.9405 73.3438 21.0992C73.3434 22.5963 73.1888 24.0708 72.629 25.475C71.6897 27.8321 69.8829 29.2547 67.558 30.0156C64.4995 31.0171 61.393 30.98 58.3461 29.9929C54.9692 28.8989 53.2925 26.3608 52.9967 22.9206C52.7814 20.418 52.7358 17.8918 53.0784 15.3892C53.6735 11.0404 56.5222 8.39944 60.878 8.13024C62.8636 8.0078 64.8036 8.15138 66.5223 9.33349C66.9517 9.62902 67.2963 10.0135 67.7629 10.4969V10.4965ZM67.7522 19.3894C67.7534 18.3194 67.7661 17.4543 67.6801 16.5909C67.5001 14.7898 66.541 13.7951 64.7588 13.5439C63.6395 13.3859 62.5266 13.3867 61.4077 13.547C59.7544 13.7843 58.8801 14.6462 58.641 16.3109C58.3992 17.9935 58.5709 19.6857 58.5276 21.3731C58.5122 21.9797 58.62 22.5736 58.7786 23.1575C59.0403 24.121 59.6089 24.7847 60.5949 25.0579C62.0714 25.4671 63.5626 25.491 65.0498 25.1799C66.744 24.8253 67.5211 23.8833 67.6856 22.1405C67.7788 21.1554 67.7395 20.1699 67.7518 19.3898L67.7522 19.3894Z" fill="white"/>
<path d="M36.0275 19.639C36.0275 20.9272 36.0299 22.2154 36.0271 23.5036C36.0188 27.4731 34.3318 29.584 30.4407 30.3582C27.6982 30.9037 24.9403 30.8722 22.2204 30.1851C19.0925 29.395 17.4769 27.2856 17.4289 24.0356C17.3797 20.7138 18.8753 18.5885 21.9361 17.6688C22.9951 17.3506 24.0855 17.1835 25.1928 17.1731C26.7554 17.1587 28.3183 17.1428 29.8801 17.1695C30.3396 17.1775 30.4835 17.0451 30.4407 16.5948C30.4007 16.1756 30.4336 15.7501 30.4209 15.3277C30.3892 14.2537 29.9621 13.6351 28.9559 13.2949C27.6407 12.8506 26.2752 12.8502 24.9121 12.9368C23.8535 13.0038 22.7973 13.1195 21.7407 13.2184C20.5009 13.3344 20.0481 12.9775 19.8827 11.7435C19.8693 11.6438 19.8617 11.5433 19.8566 11.4428C19.7424 9.17869 20.4089 8.44167 22.6633 8.24505C25.148 8.02809 27.6213 7.99977 30.0775 8.51346C30.784 8.66102 31.4692 8.88077 32.138 9.15317C34.6938 10.1937 35.8995 12.1758 36.0018 14.8691C36.062 16.4568 36.0129 18.0485 36.0129 19.6386C36.018 19.6386 36.0228 19.6386 36.0279 19.6386L36.0275 19.639ZM30.4209 22.8013C30.4244 22.8013 30.4284 22.8013 30.432 22.8013C30.432 22.5002 30.4118 22.1971 30.4371 21.8983C30.4685 21.5274 30.3761 21.3731 29.9558 21.3819C28.5574 21.4118 27.1582 21.3934 25.7594 21.3974C25.2146 21.399 24.6889 21.5027 24.1933 21.7356C23.2643 22.1723 22.8687 23.0613 23.0609 24.2709C23.1858 25.0574 23.9332 25.7422 24.8035 25.863C26.0385 26.0345 27.274 26.0301 28.5071 25.8503C29.5776 25.6943 30.3729 24.7958 30.4193 23.7042C30.432 23.4035 30.4213 23.102 30.4213 22.8009L30.4209 22.8013Z" fill="white"/>
<path d="M5.75624 19.3698C5.75624 20.094 5.7388 20.8187 5.75942 21.5422C5.82682 23.9028 6.88464 25.0167 9.21199 25.2843C10.6806 25.453 12.1269 25.3557 13.5717 25.0981C13.6701 25.0805 13.7672 25.0538 13.8663 25.041C15.2389 24.8671 15.7187 25.2444 15.8119 26.6276C15.8523 27.227 15.838 27.8288 15.7671 28.433C15.656 29.3774 15.1267 29.9131 14.2624 30.1799C13.0079 30.5671 11.7194 30.7251 10.4129 30.7031C8.70727 30.674 7.02103 30.5041 5.39743 29.9178C2.59389 28.9056 0.848176 26.943 0.375172 23.9945C-0.0978331 21.0452 -0.145809 18.0441 0.358914 15.1084C0.98972 11.4396 3.57717 9.05105 7.2375 8.38302C9.3464 7.99816 11.4525 7.93793 13.5448 8.49867C14.9229 8.86798 15.3571 9.40959 15.4043 10.843C15.4221 11.385 15.4245 11.9301 15.3904 12.4713C15.3226 13.5549 14.9214 13.9207 13.8568 13.8206C13.1626 13.7552 12.4794 13.5753 11.786 13.4955C10.5466 13.3527 9.30754 13.3703 8.08915 13.6798C6.70701 14.0307 6.03219 14.8053 5.83395 16.235C5.68924 17.2768 5.76853 18.3245 5.75585 19.3694L5.75624 19.3698Z" fill="white"/>
<path d="M45.4198 21.9963C45.4198 23.8879 45.4237 25.7791 45.4186 27.6707C45.4134 29.7155 44.944 30.1825 42.8965 30.1897C42.2764 30.1921 41.6559 30.2172 41.043 30.0736C40.3372 29.9089 40.001 29.5895 39.8837 28.8716C39.819 28.4763 39.7774 28.0723 39.7766 27.6723C39.7695 23.7686 39.7651 19.865 39.7766 15.9613C39.7818 14.2017 40.0926 12.5167 41.1746 11.0653C42.4731 9.32329 44.3199 8.58985 46.3737 8.25644C47.3653 8.09531 48.3672 8.07417 49.3695 8.10449C50.5717 8.14078 51.1513 8.68916 51.302 9.89401C51.3999 10.6769 51.417 11.4578 51.3036 12.2403C51.1815 13.0826 50.854 13.3837 49.994 13.4224C49.1554 13.4603 48.3149 13.3658 47.4771 13.5169C46.1001 13.7654 45.4784 14.4059 45.4495 15.8388C45.4083 17.8904 45.4388 19.9431 45.4388 21.9955C45.4325 21.9955 45.4261 21.9955 45.4198 21.9955V21.9963Z" fill="white"/>
</svg>
