<svg width="53" height="37" viewBox="0 0 53 37" fill="none" xmlns="http://www.w3.org/2000/svg">
<path d="M23.3634 11.564C23.5823 10.2888 23.7923 9.11223 24.1598 7.97526C25.5235 3.75725 28.3887 1.32119 32.5611 0.531869C36.5279 -0.218824 40.4991 -0.232039 44.4233 0.861726C48.6212 2.03224 50.8882 5.07516 51.9207 9.27436C52.301 10.821 52.483 12.3986 52.4859 13.9945C52.4923 17.0725 52.5183 20.151 52.4776 23.229C52.4418 25.9487 51.9481 28.5748 50.7126 31.0119C49.2984 33.8022 47.0313 35.481 44.1264 36.2037C39.7891 37.2833 35.4332 37.2934 31.117 36.0604C28.4976 35.3123 26.4489 33.7443 25.1348 31.233C25.0686 31.1059 24.9822 30.9901 24.8782 30.8259C24.5519 31.3692 24.2746 31.8815 23.9508 32.3603C22.4669 34.5534 20.3589 35.7946 17.9005 36.3847C14.6643 37.1618 11.4065 37.1252 8.18411 36.2668C4.23201 35.2147 1.71571 32.6332 1.0199 28.4518C0.352053 24.4412 0.275997 20.3655 1.09596 16.3757C1.85212 12.698 4.12013 10.1663 7.60312 9.02532C11.9954 7.58645 16.3857 7.67183 20.6754 9.54475C21.6808 9.98388 22.5219 10.702 23.3639 11.5635L23.3634 11.564ZM30.4074 18.4758C30.5085 20.7269 30.2705 22.9876 30.6302 25.232C31.0522 27.8673 32.273 29.2808 34.7928 29.7733C36.9244 30.1896 39.0722 30.1662 41.2136 29.7042C43.198 29.2762 44.3889 28.0361 44.8983 26.0463C45.1078 25.2275 45.254 24.3939 45.2589 23.5446C45.2766 20.4926 45.2874 17.441 45.2908 14.3889C45.2918 13.4908 45.2138 12.5994 45.0754 11.7099C44.6951 9.2586 43.4841 7.80245 41.2455 7.2759C39.2675 6.81085 37.2541 6.77426 35.2604 7.11987C32.2475 7.64185 31.1071 8.8703 30.6003 12.0245C30.2563 14.1638 30.5046 16.3254 30.4074 18.4758ZM18.9913 22.5434C18.9913 21.5701 18.9981 20.5962 18.9873 19.6229C18.9839 19.3165 18.9427 19.0095 18.9039 18.705C18.6439 16.643 17.7552 15.5432 15.8783 15.1325C14.1652 14.7579 12.4365 14.7874 10.7156 15.1584C8.99769 15.5284 8.00353 16.67 7.78174 18.3996C7.43285 21.1233 7.43677 23.8735 7.77977 26.5972C7.98832 28.2567 8.92163 29.4185 10.5669 29.8058C12.3011 30.214 14.0524 30.2633 15.7939 29.8688C17.7714 29.4216 18.6321 28.4076 18.9054 26.305C19.0683 25.0552 19.0065 23.7977 18.9913 22.5434Z" fill="#2A3890"/>
</svg>
